ffmpeg started on 2025-07-16 at 15:34:14
Report written to "D:\Convert\FFMetrics\reports\ssim_report-6.txt"
Log level: 32
Command line:
ffmpeg -hide_banner -nostdin -i "G:\\\xc0\xed\xe8\xec\xe5\\Shiza\\\xcb\xe5\xe3\xe5\xed\xe4\xe0 \xee \xc3\xf0\xe0\xed\xea\xf0\xe5\xf1\xf2\xe5\\[SHIZA Project] Grancrest Senki TV [01] [nDrOiDze & Lianna]_HEVC.mkv" -i "G:\\\xc0\xed\xe8\xec\xe5\\Shiza\\\xcb\xe5\xe3\xe5\xed\xe4\xe0 \xee \xc3\xf0\xe0\xed\xea\xf0\xe5\xf1\xf2\xe5\\[SHIZA Project] Grancrest Senki TV [01] [nDrOiDze & Lianna].mkv" -lavfi "[0:v]settb=AVTB,setpts=PTS-STARTPTS,format=pix_fmts=yuv420p10,fps=24000/1001,scale=1280:720:flags=bicubic[main];[1:v]settb=AVTB,setpts=PTS-STARTPTS,format=pix_fmts=yuv420p,fps=24000/1001,scale=1280:720:flags=bicubic[ref];[main][ref]ssim=eof_action=endall:stats_file='D\\:/Convert/FFMetrics/logs/ssim_logfile-6.txt'" -f null -
Input #0, matroska,webm, from 'G:\Аниме\Shiza\Легенда о Гранкресте\[SHIZA Project] Grancrest Senki TV [01] [nDrOiDze & Lianna]_HEVC.mkv':
  Metadata:
    ENCODER         : Lavf61.7.100
  Duration: 00:23:42.10, start: -0.021000, bitrate: 1016 kb/s
  Stream #0:0(jpn): Video: hevc (Main 10), yuv420p10le(tv, bt709, progressive), 1280x720 [SAR 1:1 DAR 16:9], 23.81 fps, 23.81 tbr, 1k tbn (default)
      Metadata:
        title           : [SHIZA Project] Grancrest Senki TV [WEBRip]
        ENCODER         : Lavc61.19.100 libx265
        BPS             : 817965
        DURATION        : 00:23:40.062000000
        NUMBER_OF_FRAMES: 34048
        NUMBER_OF_BYTES : 145195214
        _STATISTICS_WRITING_APP: mkvpropedit v66.0.0 ('Josie') 64-bit
        _STATISTICS_WRITING_DATE_UTC: 2025-07-14 07:43:41
        _STATISTICS_TAGS: BPS DURATION NUMBER_OF_FRAMES NUMBER_OF_BYTES
  Stream #0:1(rus): Audio: aac (LC), 48000 Hz, stereo, fltp (default)
      Metadata:
        title           : nDrOiDze & Lianna
        ENCODER         : Lavc61.19.100 aac
        BPS             : 195190
        DURATION        : 00:23:42.080000000
        NUMBER_OF_FRAMES: 66661
        NUMBER_OF_BYTES : 34697036
        _STATISTICS_WRITING_APP: mkvpropedit v66.0.0 ('Josie') 64-bit
        _STATISTICS_WRITING_DATE_UTC: 2025-07-14 07:43:41
        _STATISTICS_TAGS: BPS DURATION NUMBER_OF_FRAMES NUMBER_OF_BYTES
Input #1, matroska,webm, from 'G:\Аниме\Shiza\Легенда о Гранкресте\[SHIZA Project] Grancrest Senki TV [01] [nDrOiDze & Lianna].mkv':
  Metadata:
    encoder         : libebml v1.3.4 + libmatroska v1.4.5
    creation_time   : 2018-01-06T18:35:05.000000Z
  Duration: 00:23:42.08, start: 0.000000, bitrate: 2062 kb/s
  Stream #1:0(jpn): Video: h264 (High), yuv420p(progressive), 1280x720 [SAR 1:1 DAR 16:9], 23.81 fps, 23.81 tbr, 1k tbn (default)
      Metadata:
        title           : [SHIZA Project] Grancrest Senki TV [WEBRip]
        BPS             : 1765384
        BPS-eng         : 1765384
        DURATION        : 00:23:40.045000000
        DURATION-eng    : 00:23:40.045000000
        NUMBER_OF_FRAMES: 34048
        NUMBER_OF_FRAMES-eng: 34048
        NUMBER_OF_BYTES : 313365755
        NUMBER_OF_BYTES-eng: 313365755
        _STATISTICS_WRITING_APP: mkvmerge v10.0.0 ('To Drown In You') 64bit
        _STATISTICS_WRITING_APP-eng: mkvmerge v10.0.0 ('To Drown In You') 64bit
        _STATISTICS_WRITING_DATE_UTC: 2018-01-06 18:35:05
        _STATISTICS_WRITING_DATE_UTC-eng: 2018-01-06 18:35:05
        _STATISTICS_TAGS: BPS DURATION NUMBER_OF_FRAMES NUMBER_OF_BYTES
        _STATISTICS_TAGS-eng: BPS DURATION NUMBER_OF_FRAMES NUMBER_OF_BYTES
  Stream #1:1(rus): Audio: aac (LC), 48000 Hz, stereo, fltp (default)
      Metadata:
        title           : nDrOiDze & Lianna
        BPS             : 295298
        BPS-eng         : 295298
        DURATION        : 00:23:42.080000000
        DURATION-eng    : 00:23:42.080000000
        NUMBER_OF_FRAMES: 66660
        NUMBER_OF_FRAMES-eng: 66660
        NUMBER_OF_BYTES : 52492235
        NUMBER_OF_BYTES-eng: 52492235
        _STATISTICS_WRITING_APP: mkvmerge v10.0.0 ('To Drown In You') 64bit
        _STATISTICS_WRITING_APP-eng: mkvmerge v10.0.0 ('To Drown In You') 64bit
        _STATISTICS_WRITING_DATE_UTC: 2018-01-06 18:35:05
        _STATISTICS_WRITING_DATE_UTC-eng: 2018-01-06 18:35:05
        _STATISTICS_TAGS: BPS DURATION NUMBER_OF_FRAMES NUMBER_OF_BYTES
        _STATISTICS_TAGS-eng: BPS DURATION NUMBER_OF_FRAMES NUMBER_OF_BYTES
  Stream #1:2: Attachment: ttf
      Metadata:
        filename        : OpenSans-Semibold.ttf
        mimetype        : application/x-truetype-font
Stream mapping:
  Stream #0:0 (hevc) -> settb:default
  Stream #1:0 (h264) -> settb:default
  ssim:default -> Stream #0:0 (wrapped_avframe)
  Stream #0:1 -> #0:1 (aac (native) -> pcm_s16le (native))
[swscaler @ 00000288fba51c00] No accelerated colorspace conversion found from yuv420p to bgr48le.
[swscaler @ 00000288fbbd7400] No accelerated colorspace conversion found from yuv420p to bgr48le.
[swscaler @ 00000288fbd36740] No accelerated colorspace conversion found from yuv420p to bgr48le.
[swscaler @ 00000288fbed7140] No accelerated colorspace conversion found from yuv420p to bgr48le.
[swscaler @ 00000288fbf7e440] No accelerated colorspace conversion found from yuv420p to bgr48le.
[swscaler @ 00000288fc057bc0] No accelerated colorspace conversion found from yuv420p to bgr48le.
[swscaler @ 00000288fc0b8740] No accelerated colorspace conversion found from yuv420p to bgr48le.
[swscaler @ 00000288fc118740] No accelerated colorspace conversion found from yuv420p to bgr48le.
[swscaler @ 00000288fc179780] No accelerated colorspace conversion found from yuv420p to bgr48le.
[swscaler @ 00000288fc1bd340] No accelerated colorspace conversion found from yuv420p to bgr48le.
[swscaler @ 00000288fc227240] No accelerated colorspace conversion found from yuv420p to bgr48le.
[swscaler @ 00000288fc285040] No accelerated colorspace conversion found from yuv420p to bgr48le.
[swscaler @ 00000288fc2e3040] No accelerated colorspace conversion found from yuv420p to bgr48le.
[swscaler @ 00000288fc361840] No accelerated colorspace conversion found from yuv420p to bgr48le.
[swscaler @ 00000288fc404040] No accelerated colorspace conversion found from yuv420p to bgr48le.
[swscaler @ 00000288fc48e040] No accelerated colorspace conversion found from yuv420p to bgr48le.
Output #0, null, to 'pipe:':
  Metadata:
    encoder         : Lavf61.7.100
  Stream #0:0: Video: wrapped_avframe, yuv420p10le(tv, bt709, progressive), 1280x720 [SAR 1:1 DAR 16:9], q=2-31, 200 kb/s, 23.98 fps, 23.98 tbn
      Metadata:
        encoder         : Lavc61.19.100 wrapped_avframe
  Stream #0:1(rus): Audio: pcm_s16le, 48000 Hz, stereo, s16, 1536 kb/s (default)
      Metadata:
        title           : nDrOiDze & Lianna
        _STATISTICS_TAGS: BPS DURATION NUMBER_OF_FRAMES NUMBER_OF_BYTES
        BPS             : 195190
        DURATION        : 00:23:42.080000000
        NUMBER_OF_FRAMES: 66661
        NUMBER_OF_BYTES : 34697036
        _STATISTICS_WRITING_APP: mkvpropedit v66.0.0 ('Josie') 64-bit
        _STATISTICS_WRITING_DATE_UTC: 2025-07-14 07:43:41
        encoder         : Lavc61.19.100 pcm_s16le
frame=   86 fps=0.0 q=-0.0 size=N/A time=00:00:03.58 bitrate=N/A speed=6.93x    frame=  190 fps=183 q=-0.0 size=N/A time=00:00:07.92 bitrate=N/A speed=7.62x    frame=  283 fps=183 q=-0.0 size=N/A time=00:00:11.80 bitrate=N/A speed=7.62x    frame=  390 fps=188 q=-0.0 size=N/A time=00:00:16.26 bitrate=N/A speed=7.86x    frame=  480 fps=186 q=-0.0 size=N/A time=00:00:20.02 bitrate=N/A speed=7.76x    frame=  580 fps=187 q=-0.0 size=N/A time=00:00:24.19 bitrate=N/A speed=7.79x    frame=  678 fps=188 q=-0.0 size=N/A time=00:00:28.27 bitrate=N/A speed=7.83x    frame=  776 fps=188 q=-0.0 size=N/A time=00:00:32.36 bitrate=N/A speed=7.83x    frame=  874 fps=188 q=-0.0 size=N/A time=00:00:36.45 bitrate=N/A speed=7.85x    frame=  973 fps=188 q=-0.0 size=N/A time=00:00:40.58 bitrate=N/A speed=7.85x    frame= 1078 fps=190 q=-0.0 size=N/A time=00:00:44.96 bitrate=N/A speed=7.92x    frame= 1164 fps=188 q=-0.0 size=N/A time=00:00:48.54 bitrate=N/A speed=7.84x    frame= 1277 fps=190 q=-0.0 size=N/A time=00:00:53.26 bitrate=N/A speed=7.94x    frame= 1377 fps=191 q=-0.0 size=N/A time=00:00:57.43 bitrate=N/A speed=7.96x    frame= 1477 fps=191 q=-0.0 size=N/A time=00:01:01.60 bitrate=N/A speed=7.96x    frame= 1581 fps=191 q=-0.0 size=N/A time=00:01:05.94 bitrate=N/A speed=7.98x    frame= 1682 fps=191 q=-0.0 size=N/A time=00:01:10.15 bitrate=N/A speed=7.99x    frame= 1784 fps=192 q=-0.0 size=N/A time=00:01:14.40 bitrate=N/A speed=   8x    frame= 1889 fps=192 q=-0.0 size=N/A time=00:01:18.78 bitrate=N/A speed=8.03x    frame= 1986 fps=192 q=-0.0 size=N/A time=00:01:22.83 bitrate=N/A speed=8.01x    frame= 2094 fps=193 q=-0.0 size=N/A time=00:01:27.33 bitrate=N/A speed=8.04x    frame= 2195 fps=193 q=-0.0 size=N/A time=00:01:31.54 bitrate=N/A speed=8.04x    frame= 2296 fps=193 q=-0.0 size=N/A time=00:01:35.76 bitrate=N/A speed=8.05x    frame= 2397 fps=193 q=-0.0 size=N/A time=00:01:39.97 bitrate=N/A speed=8.06x    frame= 2499 fps=193 q=-0.0 size=N/A time=00:01:44.22 bitrate=N/A speed=8.06x    frame= 2602 fps=194 q=-0.0 size=N/A time=00:01:48.52 bitrate=N/A speed=8.08x    frame= 2702 fps=194 q=-0.0 size=N/A time=00:01:52.69 bitrate=N/A speed=8.08x    frame= 2803 fps=194 q=-0.0 size=N/A time=00:01:56.90 bitrate=N/A speed=8.08x    frame= 2900 fps=194 q=-0.0 size=N/A time=00:02:00.95 bitrate=N/A speed=8.07x    frame= 3003 fps=194 q=-0.0 size=N/A time=00:02:05.25 bitrate=N/A speed=8.08x    frame= 3097 fps=193 q=-0.0 size=N/A time=00:02:09.17 bitrate=N/A speed=8.07x    frame= 3200 fps=194 q=-0.0 size=N/A time=00:02:13.46 bitrate=N/A speed=8.07x    frame= 3302 fps=194 q=-0.0 size=N/A time=00:02:17.72 bitrate=N/A speed=8.07x    frame= 3404 fps=194 q=-0.0 size=N/A time=00:02:21.97 bitrate=N/A speed=8.08x    frame= 3505 fps=194 q=-0.0 size=N/A time=00:02:26.18 bitrate=N/A speed=8.08x    frame= 3608 fps=194 q=-0.0 size=N/A time=00:02:30.48 bitrate=N/A speed=8.09x    frame= 3710 fps=194 q=-0.0 size=N/A time=00:02:34.73 bitrate=N/A speed=8.09x    frame= 3811 fps=194 q=-0.0 size=N/A time=00:02:38.95 bitrate=N/A speed=8.09x    frame= 3906 fps=194 q=-0.0 size=N/A time=00:02:42.91 bitrate=N/A speed=8.08x    frame= 4011 fps=194 q=-0.0 size=N/A time=00:02:47.29 bitrate=N/A speed=8.09x    frame= 4105 fps=194 q=-0.0 size=N/A time=00:02:51.21 bitrate=N/A speed=8.08x    frame= 4212 fps=194 q=-0.0 size=N/A time=00:02:55.67 bitrate=N/A speed=8.09x    frame= 4313 fps=194 q=-0.0 size=N/A time=00:02:59.88 bitrate=N/A speed=8.09x    frame= 4410 fps=194 q=-0.0 size=N/A time=00:03:03.93 bitrate=N/A speed=8.09x    frame= 4508 fps=194 q=-0.0 size=N/A time=00:03:08.02 bitrate=N/A speed=8.09x    frame= 4605 fps=194 q=-0.0 size=N/A time=00:03:12.06 bitrate=N/A speed=8.08x    frame= 4695 fps=193 q=-0.0 size=N/A time=00:03:15.82 bitrate=N/A speed=8.06x    frame= 4806 fps=194 q=-0.0 size=N/A time=00:03:20.45 bitrate=N/A speed=8.08x    frame= 4897 fps=193 q=-0.0 size=N/A time=00:03:24.24 bitrate=N/A speed=8.07x    frame= 4999 fps=193 q=-0.0 size=N/A time=00:03:28.49 bitrate=N/A speed=8.07x    frame= 5094 fps=193 q=-0.0 size=N/A time=00:03:32.46 bitrate=N/A speed=8.06x    frame= 5195 fps=193 q=-0.0 size=N/A time=00:03:36.67 bitrate=N/A speed=8.06x    frame= 5296 fps=193 q=-0.0 size=N/A time=00:03:40.88 bitrate=N/A speed=8.07x    frame= 5398 fps=193 q=-0.0 size=N/A time=00:03:45.14 bitrate=N/A speed=8.07x    frame= 5486 fps=193 q=-0.0 size=N/A time=00:03:48.81 bitrate=N/A speed=8.05x    frame= 5587 fps=193 q=-0.0 size=N/A time=00:03:53.02 bitrate=N/A speed=8.05x    frame= 5692 fps=193 q=-0.0 size=N/A time=00:03:57.40 bitrate=N/A speed=8.06x    frame= 5799 fps=194 q=-0.0 size=N/A time=00:04:01.86 bitrate=N/A speed=8.07x    frame= 5890 fps=193 q=-0.0 size=N/A time=00:04:05.66 bitrate=N/A speed=8.06x    frame= 5997 fps=193 q=-0.0 size=N/A time=00:04:10.12 bitrate=N/A speed=8.07x    frame= 6093 fps=193 q=-0.0 size=N/A time=00:04:14.12 bitrate=N/A speed=8.07x    frame= 6194 fps=193 q=-0.0 size=N/A time=00:04:18.34 bitrate=N/A speed=8.07x    frame= 6291 fps=193 q=-0.0 size=N/A time=00:04:22.38 bitrate=N/A speed=8.06x    frame= 6392 fps=193 q=-0.0 size=N/A time=00:04:26.59 bitrate=N/A speed=8.06x    frame= 6491 fps=193 q=-0.0 size=N/A time=00:04:30.72 bitrate=N/A speed=8.06x    frame= 6586 fps=193 q=-0.0 size=N/A time=00:04:34.69 bitrate=N/A speed=8.05x    frame= 6692 fps=193 q=-0.0 size=N/A time=00:04:39.11 bitrate=N/A speed=8.06x    frame= 6790 fps=193 q=-0.0 size=N/A time=00:04:43.19 bitrate=N/A speed=8.06x    frame= 6889 fps=193 q=-0.0 size=N/A time=00:04:47.32 bitrate=N/A speed=8.06x    frame= 6988 fps=193 q=-0.0 size=N/A time=00:04:51.45 bitrate=N/A speed=8.06x    frame= 7084 fps=193 q=-0.0 size=N/A time=00:04:55.46 bitrate=N/A speed=8.06x    frame= 7189 fps=193 q=-0.0 size=N/A time=00:04:59.84 bitrate=N/A speed=8.06x    frame= 7281 fps=193 q=-0.0 size=N/A time=00:05:03.67 bitrate=N/A speed=8.05x    frame= 7387 fps=193 q=-0.0 size=N/A time=00:05:08.09 bitrate=N/A speed=8.06x    frame= 7494 fps=193 q=-0.0 size=N/A time=00:05:12.56 bitrate=N/A speed=8.07x    frame= 7590 fps=193 q=-0.0 size=N/A time=00:05:16.56 bitrate=N/A speed=8.06x    frame= 7695 fps=193 q=-0.0 size=N/A time=00:05:20.94 bitrate=N/A speed=8.07x    frame= 7794 fps=194 q=-0.0 size=N/A time=00:05:25.07 bitrate=N/A speed=8.07x    frame= 7896 fps=194 q=-0.0 size=N/A time=00:05:29.32 bitrate=N/A speed=8.07x    frame= 7998 fps=194 q=-0.0 size=N/A time=00:05:33.58 bitrate=N/A speed=8.07x    frame= 8099 fps=194 q=-0.0 size=N/A time=00:05:37.79 bitrate=N/A speed=8.08x    frame= 8195 fps=193 q=-0.0 size=N/A time=00:05:41.79 bitrate=N/A speed=8.07x    frame= 8298 fps=194 q=-0.0 size=N/A time=00:05:46.09 bitrate=N/A speed=8.07x    frame= 8388 fps=193 q=-0.0 size=N/A time=00:05:49.84 bitrate=N/A speed=8.07x    frame= 8497 fps=194 q=-0.0 size=N/A time=00:05:54.39 bitrate=N/A speed=8.07x    frame= 8589 fps=193 q=-0.0 size=N/A time=00:05:58.23 bitrate=N/A speed=8.07x    frame= 8691 fps=193 q=-0.0 size=N/A time=00:06:02.48 bitrate=N/A speed=8.07x    frame= 8781 fps=193 q=-0.0 size=N/A time=00:06:06.24 bitrate=N/A speed=8.06x    frame= 8890 fps=193 q=-0.0 size=N/A time=00:06:10.78 bitrate=N/A speed=8.07x    frame= 8984 fps=193 q=-0.0 size=N/A time=00:06:14.70 bitrate=N/A speed=8.06x    frame= 9091 fps=193 q=-0.0 size=N/A time=00:06:19.17 bitrate=N/A speed=8.07x    frame= 9185 fps=193 q=-0.0 size=N/A time=00:06:23.09 bitrate=N/A speed=8.06x    frame= 9285 fps=193 q=-0.0 size=N/A time=00:06:27.26 bitrate=N/A speed=8.06x    frame= 9387 fps=193 q=-0.0 size=N/A time=00:06:31.51 bitrate=N/A speed=8.07x    frame= 9489 fps=193 q=-0.0 size=N/A time=00:06:35.77 bitrate=N/A speed=8.07x    frame= 9586 fps=193 q=-0.0 size=N/A time=00:06:39.81 bitrate=N/A speed=8.07x    frame= 9682 fps=193 q=-0.0 size=N/A time=00:06:43.82 bitrate=N/A speed=8.06x    frame= 9775 fps=193 q=-0.0 size=N/A time=00:06:47.69 bitrate=N/A speed=8.06x    frame= 9886 fps=193 q=-0.0 size=N/A time=00:06:52.32 bitrate=N/A speed=8.07x    frame= 9978 fps=193 q=-0.0 size=N/A time=00:06:56.16 bitrate=N/A speed=8.06x    frame=10080 fps=193 q=-0.0 size=N/A time=00:07:00.42 bitrate=N/A speed=8.06x    frame=10177 fps=193 q=-0.0 size=N/A time=00:07:04.46 bitrate=N/A speed=8.06x    frame=10283 fps=193 q=-0.0 size=N/A time=00:07:08.88 bitrate=N/A speed=8.07x    frame=10387 fps=193 q=-0.0 size=N/A time=00:07:13.22 bitrate=N/A speed=8.07x    frame=10484 fps=193 q=-0.0 size=N/A time=00:07:17.27 bitrate=N/A speed=8.07x    frame=10583 fps=193 q=-0.0 size=N/A time=00:07:21.39 bitrate=N/A speed=8.07x    frame=10678 fps=193 q=-0.0 size=N/A time=00:07:25.36 bitrate=N/A speed=8.06x    frame=10778 fps=193 q=-0.0 size=N/A time=00:07:29.53 bitrate=N/A speed=8.06x    frame=10876 fps=193 q=-0.0 size=N/A time=00:07:33.61 bitrate=N/A speed=8.06x    frame=10973 fps=193 q=-0.0 size=N/A time=00:07:37.66 bitrate=N/A speed=8.06x    frame=11081 fps=193 q=-0.0 size=N/A time=00:07:42.17 bitrate=N/A speed=8.07x    frame=11186 fps=193 q=-0.0 size=N/A time=00:07:46.54 bitrate=N/A speed=8.07x    frame=11287 fps=194 q=-0.0 size=N/A time=00:07:50.76 bitrate=N/A speed=8.07x    frame=11392 fps=194 q=-0.0 size=N/A time=00:07:55.14 bitrate=N/A speed=8.07x    frame=11491 fps=194 q=-0.0 size=N/A time=00:07:59.27 bitrate=N/A speed=8.07x    frame=11594 fps=194 q=-0.0 size=N/A time=00:08:03.56 bitrate=N/A speed=8.08x    frame=11692 fps=194 q=-0.0 size=N/A time=00:08:07.65 bitrate=N/A speed=8.07x    frame=11795 fps=194 q=-0.0 size=N/A time=00:08:11.94 bitrate=N/A speed=8.08x    frame=11899 fps=194 q=-0.0 size=N/A time=00:08:16.28 bitrate=N/A speed=8.08x    frame=11998 fps=194 q=-0.0 size=N/A time=00:08:20.41 bitrate=N/A speed=8.08x    frame=12103 fps=194 q=-0.0 size=N/A time=00:08:24.79 bitrate=N/A speed=8.08x    frame=12204 fps=194 q=-0.0 size=N/A time=00:08:29.00 bitrate=N/A speed=8.08x    frame=12306 fps=194 q=-0.0 size=N/A time=00:08:33.26 bitrate=N/A speed=8.08x    frame=12401 fps=194 q=-0.0 size=N/A time=00:08:37.22 bitrate=N/A speed=8.08x    frame=12510 fps=194 q=-0.0 size=N/A time=00:08:41.77 bitrate=N/A speed=8.09x    frame=12611 fps=194 q=-0.0 size=N/A time=00:08:45.98 bitrate=N/A speed=8.09x    frame=12715 fps=194 q=-0.0 size=N/A time=00:08:50.32 bitrate=N/A speed=8.09x    frame=12815 fps=194 q=-0.0 size=N/A time=00:08:54.49 bitrate=N/A speed=8.09x    frame=12915 fps=194 q=-0.0 size=N/A time=00:08:58.66 bitrate=N/A speed=8.09x    frame=13012 fps=194 q=-0.0 size=N/A time=00:09:02.70 bitrate=N/A speed=8.09x    frame=13103 fps=194 q=-0.0 size=N/A time=00:09:06.50 bitrate=N/A speed=8.08x    frame=13193 fps=194 q=-0.0 size=N/A time=00:09:10.25 bitrate=N/A speed=8.08x    frame=13286 fps=194 q=-0.0 size=N/A time=00:09:14.13 bitrate=N/A speed=8.07x    frame=13388 fps=194 q=-0.0 size=N/A time=00:09:18.39 bitrate=N/A speed=8.07x    frame=13483 fps=194 q=-0.0 size=N/A time=00:09:22.35 bitrate=N/A speed=8.07x    frame=13575 fps=193 q=-0.0 size=N/A time=00:09:26.19 bitrate=N/A speed=8.07x    frame=13667 fps=193 q=-0.0 size=N/A time=00:09:30.02 bitrate=N/A speed=8.06x    frame=13759 fps=193 q=-0.0 size=N/A time=00:09:33.86 bitrate=N/A speed=8.06x    frame=13848 fps=193 q=-0.0 size=N/A time=00:09:37.57 bitrate=N/A speed=8.05x    frame=13933 fps=193 q=-0.0 size=N/A time=00:09:41.12 bitrate=N/A speed=8.04x    frame=14017 fps=193 q=-0.0 size=N/A time=00:09:44.62 bitrate=N/A speed=8.03x    frame=14114 fps=193 q=-0.0 size=N/A time=00:09:48.67 bitrate=N/A speed=8.03x    frame=14202 fps=192 q=-0.0 size=N/A time=00:09:52.34 bitrate=N/A speed=8.03x    frame=14283 fps=192 q=-0.0 size=N/A time=00:09:55.72 bitrate=N/A speed=8.01x    frame=14382 fps=192 q=-0.0 size=N/A time=00:09:59.84 bitrate=N/A speed=8.01x    frame=14471 fps=192 q=-0.0 size=N/A time=00:10:03.56 bitrate=N/A speed=8.01x    frame=14562 fps=192 q=-0.0 size=N/A time=00:10:07.35 bitrate=N/A speed=   8x    frame=14655 fps=192 q=-0.0 size=N/A time=00:10:11.23 bitrate=N/A speed=   8x    frame=14743 fps=192 q=-0.0 size=N/A time=00:10:14.90 bitrate=N/A speed=7.99x    frame=14839 fps=192 q=-0.0 size=N/A time=00:10:18.90 bitrate=N/A speed=7.99x    frame=14926 fps=191 q=-0.0 size=N/A time=00:10:22.53 bitrate=N/A speed=7.99x    frame=15025 fps=192 q=-0.0 size=N/A time=00:10:26.66 bitrate=N/A speed=7.99x    frame=15118 fps=191 q=-0.0 size=N/A time=00:10:30.54 bitrate=N/A speed=7.98x    frame=15207 fps=191 q=-0.0 size=N/A time=00:10:34.25 bitrate=N/A speed=7.98x    frame=15298 fps=191 q=-0.0 size=N/A time=00:10:38.05 bitrate=N/A speed=7.98x    frame=15390 fps=191 q=-0.0 size=N/A time=00:10:41.89 bitrate=N/A speed=7.97x    frame=15483 fps=191 q=-0.0 size=N/A time=00:10:45.77 bitrate=N/A speed=7.97x    frame=15570 fps=191 q=-0.0 size=N/A time=00:10:49.39 bitrate=N/A speed=7.96x    frame=15661 fps=191 q=-0.0 size=N/A time=00:10:53.19 bitrate=N/A speed=7.96x    frame=15775 fps=191 q=-0.0 size=N/A time=00:10:57.94 bitrate=N/A speed=7.97x    frame=15863 fps=191 q=-0.0 size=N/A time=00:11:01.61 bitrate=N/A speed=7.96x    frame=15974 fps=191 q=-0.0 size=N/A time=00:11:06.24 bitrate=N/A speed=7.97x    frame=16060 fps=191 q=-0.0 size=N/A time=00:11:09.83 bitrate=N/A speed=7.96x    frame=16172 fps=191 q=-0.0 size=N/A time=00:11:14.50 bitrate=N/A speed=7.97x    frame=16256 fps=191 q=-0.0 size=N/A time=00:11:18.01 bitrate=N/A speed=7.96x    frame=16373 fps=191 q=-0.0 size=N/A time=00:11:22.89 bitrate=N/A speed=7.97x    frame=16466 fps=191 q=-0.0 size=N/A time=00:11:26.76 bitrate=N/A speed=7.97x    frame=16563 fps=191 q=-0.0 size=N/A time=00:11:30.81 bitrate=N/A speed=7.97x    frame=16657 fps=191 q=-0.0 size=N/A time=00:11:34.73 bitrate=N/A speed=7.97x    frame=16757 fps=191 q=-0.0 size=N/A time=00:11:38.90 bitrate=N/A speed=7.97x    frame=16860 fps=191 q=-0.0 size=N/A time=00:11:43.20 bitrate=N/A speed=7.97x    frame=16952 fps=191 q=-0.0 size=N/A time=00:11:47.03 bitrate=N/A speed=7.96x    frame=17051 fps=191 q=-0.0 size=N/A time=00:11:51.16 bitrate=N/A speed=7.97x    frame=17142 fps=191 q=-0.0 size=N/A time=00:11:54.96 bitrate=N/A speed=7.96x    frame=17249 fps=191 q=-0.0 size=N/A time=00:11:59.42 bitrate=N/A speed=7.97x    frame=17336 fps=191 q=-0.0 size=N/A time=00:12:03.05 bitrate=N/A speed=7.96x    frame=17425 fps=191 q=-0.0 size=N/A time=00:12:06.76 bitrate=N/A speed=7.96x    frame=17520 fps=191 q=-0.0 size=N/A time=00:12:10.73 bitrate=N/A speed=7.95x    frame=17605 fps=191 q=-0.0 size=N/A time=00:12:14.27 bitrate=N/A speed=7.95x    frame=17710 fps=191 q=-0.0 size=N/A time=00:12:18.65 bitrate=N/A speed=7.95x    frame=17801 fps=191 q=-0.0 size=N/A time=00:12:22.45 bitrate=N/A speed=7.95x    frame=17895 fps=191 q=-0.0 size=N/A time=00:12:26.37 bitrate=N/A speed=7.95x    frame=17996 fps=191 q=-0.0 size=N/A time=00:12:30.58 bitrate=N/A speed=7.95x    frame=18083 fps=190 q=-0.0 size=N/A time=00:12:34.21 bitrate=N/A speed=7.94x    frame=18188 fps=190 q=-0.0 size=N/A time=00:12:38.59 bitrate=N/A speed=7.95x    frame=18278 fps=190 q=-0.0 size=N/A time=00:12:42.34 bitrate=N/A speed=7.94x    frame=18378 fps=190 q=-0.0 size=N/A time=00:12:46.51 bitrate=N/A speed=7.94x    frame=18465 fps=190 q=-0.0 size=N/A time=00:12:50.14 bitrate=N/A speed=7.94x    frame=18564 fps=190 q=-0.0 size=N/A time=00:12:54.27 bitrate=N/A speed=7.94x    frame=18664 fps=190 q=-0.0 size=N/A time=00:12:58.44 bitrate=N/A speed=7.94x    frame=18758 fps=190 q=-0.0 size=N/A time=00:13:02.36 bitrate=N/A speed=7.94x    frame=18851 fps=190 q=-0.0 size=N/A time=00:13:06.24 bitrate=N/A speed=7.93x    frame=18937 fps=190 q=-0.0 size=N/A time=00:13:09.83 bitrate=N/A speed=7.93x    frame=19039 fps=190 q=-0.0 size=N/A time=00:13:14.08 bitrate=N/A speed=7.93x    frame=19131 fps=190 q=-0.0 size=N/A time=00:13:17.92 bitrate=N/A speed=7.93x    frame=19221 fps=190 q=-0.0 size=N/A time=00:13:21.67 bitrate=N/A speed=7.93x    frame=19320 fps=190 q=-0.0 size=N/A time=00:13:25.80 bitrate=N/A speed=7.93x    frame=19420 fps=190 q=-0.0 size=N/A time=00:13:29.97 bitrate=N/A speed=7.93x    frame=19516 fps=190 q=-0.0 size=N/A time=00:13:33.97 bitrate=N/A speed=7.93x    frame=19616 fps=190 q=-0.0 size=N/A time=00:13:38.15 bitrate=N/A speed=7.93x    frame=19709 fps=190 q=-0.0 size=N/A time=00:13:42.02 bitrate=N/A speed=7.92x    frame=19800 fps=190 q=-0.0 size=N/A time=00:13:45.82 bitrate=N/A speed=7.92x    frame=19887 fps=190 q=-0.0 size=N/A time=00:13:49.45 bitrate=N/A speed=7.92x    frame=19979 fps=190 q=-0.0 size=N/A time=00:13:53.29 bitrate=N/A speed=7.92x    frame=20067 fps=190 q=-0.0 size=N/A time=00:13:56.96 bitrate=N/A speed=7.91x    frame=20173 fps=190 q=-0.0 size=N/A time=00:14:01.38 bitrate=N/A speed=7.92x    frame=20261 fps=190 q=-0.0 size=N/A time=00:14:05.05 bitrate=N/A speed=7.91x    frame=20365 fps=190 q=-0.0 size=N/A time=00:14:09.39 bitrate=N/A speed=7.91x    frame=20459 fps=190 q=-0.0 size=N/A time=00:14:13.31 bitrate=N/A speed=7.91x    frame=20558 fps=190 q=-0.0 size=N/A time=00:14:17.43 bitrate=N/A speed=7.91x    frame=20650 fps=190 q=-0.0 size=N/A time=00:14:21.27 bitrate=N/A speed=7.91x    frame=20748 fps=190 q=-0.0 size=N/A time=00:14:25.36 bitrate=N/A speed=7.91x    frame=20845 fps=190 q=-0.0 size=N/A time=00:14:29.41 bitrate=N/A speed=7.91x    frame=20943 fps=190 q=-0.0 size=N/A time=00:14:33.49 bitrate=N/A speed=7.91x    frame=21040 fps=190 q=-0.0 size=N/A time=00:14:37.54 bitrate=N/A speed=7.91x    frame=21135 fps=190 q=-0.0 size=N/A time=00:14:41.50 bitrate=N/A speed=7.91x    frame=21226 fps=190 q=-0.0 size=N/A time=00:14:45.30 bitrate=N/A speed=7.91x    frame=21317 fps=190 q=-0.0 size=N/A time=00:14:49.09 bitrate=N/A speed= 7.9x    frame=21407 fps=189 q=-0.0 size=N/A time=00:14:52.85 bitrate=N/A speed= 7.9x    frame=21497 fps=189 q=-0.0 size=N/A time=00:14:56.60 bitrate=N/A speed= 7.9x    frame=21593 fps=189 q=-0.0 size=N/A time=00:15:00.60 bitrate=N/A speed= 7.9x    frame=21685 fps=189 q=-0.0 size=N/A time=00:15:04.44 bitrate=N/A speed=7.89x    frame=21779 fps=189 q=-0.0 size=N/A time=00:15:08.36 bitrate=N/A speed=7.89x    frame=21874 fps=189 q=-0.0 size=N/A time=00:15:12.32 bitrate=N/A speed=7.89x    frame=21971 fps=189 q=-0.0 size=N/A time=00:15:16.37 bitrate=N/A speed=7.89x    frame=22064 fps=189 q=-0.0 size=N/A time=00:15:20.25 bitrate=N/A speed=7.89x    frame=22157 fps=189 q=-0.0 size=N/A time=00:15:24.13 bitrate=N/A speed=7.89x    frame=22251 fps=189 q=-0.0 size=N/A time=00:15:28.05 bitrate=N/A speed=7.89x    frame=22337 fps=189 q=-0.0 size=N/A time=00:15:31.63 bitrate=N/A speed=7.88x    frame=22439 fps=189 q=-0.0 size=N/A time=00:15:35.89 bitrate=N/A speed=7.89x    frame=22539 fps=189 q=-0.0 size=N/A time=00:15:40.06 bitrate=N/A speed=7.89x    frame=22632 fps=189 q=-0.0 size=N/A time=00:15:43.94 bitrate=N/A speed=7.88x    frame=22736 fps=189 q=-0.0 size=N/A time=00:15:48.28 bitrate=N/A speed=7.89x    frame=22830 fps=189 q=-0.0 size=N/A time=00:15:52.20 bitrate=N/A speed=7.89x    frame=22922 fps=189 q=-0.0 size=N/A time=00:15:56.03 bitrate=N/A speed=7.88x    frame=23014 fps=189 q=-0.0 size=N/A time=00:15:59.87 bitrate=N/A speed=7.88x    frame=23112 fps=189 q=-0.0 size=N/A time=00:16:03.96 bitrate=N/A speed=7.88x    frame=23197 fps=189 q=-0.0 size=N/A time=00:16:07.50 bitrate=N/A speed=7.88x    frame=23283 fps=189 q=-0.0 size=N/A time=00:16:11.09 bitrate=N/A speed=7.87x    frame=23368 fps=189 q=-0.0 size=N/A time=00:16:14.64 bitrate=N/A speed=7.87x    frame=23458 fps=189 q=-0.0 size=N/A time=00:16:18.39 bitrate=N/A speed=7.87x    frame=23551 fps=189 q=-0.0 size=N/A time=00:16:22.27 bitrate=N/A speed=7.87x    frame=23650 fps=189 q=-0.0 size=N/A time=00:16:26.40 bitrate=N/A speed=7.87x    frame=23752 fps=189 q=-0.0 size=N/A time=00:16:30.65 bitrate=N/A speed=7.87x    frame=23849 fps=189 q=-0.0 size=N/A time=00:16:34.70 bitrate=N/A speed=7.87x    frame=23951 fps=189 q=-0.0 size=N/A time=00:16:38.95 bitrate=N/A speed=7.87x    frame=24053 fps=189 q=-0.0 size=N/A time=00:16:43.21 bitrate=N/A speed=7.87x    frame=24150 fps=189 q=-0.0 size=N/A time=00:16:47.25 bitrate=N/A speed=7.87x    frame=24253 fps=189 q=-0.0 size=N/A time=00:16:51.55 bitrate=N/A speed=7.87x    frame=24353 fps=189 q=-0.0 size=N/A time=00:16:55.72 bitrate=N/A speed=7.87x    frame=24443 fps=189 q=-0.0 size=N/A time=00:16:59.47 bitrate=N/A speed=7.87x    frame=24552 fps=189 q=-0.0 size=N/A time=00:17:04.02 bitrate=N/A speed=7.87x    frame=24642 fps=189 q=-0.0 size=N/A time=00:17:07.77 bitrate=N/A speed=7.87x    frame=24748 fps=189 q=-0.0 size=N/A time=00:17:12.19 bitrate=N/A speed=7.87x    frame=24848 fps=189 q=-0.0 size=N/A time=00:17:16.36 bitrate=N/A speed=7.87x    frame=24944 fps=189 q=-0.0 size=N/A time=00:17:20.37 bitrate=N/A speed=7.87x    frame=25044 fps=189 q=-0.0 size=N/A time=00:17:24.54 bitrate=N/A speed=7.87x    frame=25144 fps=189 q=-0.0 size=N/A time=00:17:28.71 bitrate=N/A speed=7.88x    frame=25249 fps=189 q=-0.0 size=N/A time=00:17:33.09 bitrate=N/A speed=7.88x    frame=25345 fps=189 q=-0.0 size=N/A time=00:17:37.09 bitrate=N/A speed=7.88x    frame=25448 fps=189 q=-0.0 size=N/A time=00:17:41.39 bitrate=N/A speed=7.88x    frame=25544 fps=189 q=-0.0 size=N/A time=00:17:45.39 bitrate=N/A speed=7.88x    frame=25645 fps=189 q=-0.0 size=N/A time=00:17:49.61 bitrate=N/A speed=7.88x    frame=25741 fps=189 q=-0.0 size=N/A time=00:17:53.61 bitrate=N/A speed=7.88x    frame=25839 fps=189 q=-0.0 size=N/A time=00:17:57.70 bitrate=N/A speed=7.88x    frame=25943 fps=189 q=-0.0 size=N/A time=00:18:02.03 bitrate=N/A speed=7.88x    frame=26029 fps=189 q=-0.0 size=N/A time=00:18:05.62 bitrate=N/A speed=7.88x    frame=26134 fps=189 q=-0.0 size=N/A time=00:18:10.00 bitrate=N/A speed=7.88x    frame=26227 fps=189 q=-0.0 size=N/A time=00:18:13.88 bitrate=N/A speed=7.88x    frame=26333 fps=189 q=-0.0 size=N/A time=00:18:18.30 bitrate=N/A speed=7.88x    frame=26429 fps=189 q=-0.0 size=N/A time=00:18:22.30 bitrate=N/A speed=7.88x    frame=26515 fps=189 q=-0.0 size=N/A time=00:18:25.89 bitrate=N/A speed=7.88x    frame=26604 fps=189 q=-0.0 size=N/A time=00:18:29.60 bitrate=N/A speed=7.88x    frame=26686 fps=189 q=-0.0 size=N/A time=00:18:33.02 bitrate=N/A speed=7.87x    frame=26780 fps=189 q=-0.0 size=N/A time=00:18:36.94 bitrate=N/A speed=7.87x    frame=26876 fps=189 q=-0.0 size=N/A time=00:18:40.95 bitrate=N/A speed=7.87x    frame=26964 fps=189 q=-0.0 size=N/A time=00:18:44.62 bitrate=N/A speed=7.87x    frame=27051 fps=189 q=-0.0 size=N/A time=00:18:48.25 bitrate=N/A speed=7.86x    frame=27151 fps=189 q=-0.0 size=N/A time=00:18:52.42 bitrate=N/A speed=7.86x    frame=27256 fps=189 q=-0.0 size=N/A time=00:18:56.80 bitrate=N/A speed=7.87x    frame=27349 fps=189 q=-0.0 size=N/A time=00:19:00.68 bitrate=N/A speed=7.87x    frame=27443 fps=189 q=-0.0 size=N/A time=00:19:04.60 bitrate=N/A speed=7.86x    frame=27541 fps=189 q=-0.0 size=N/A time=00:19:08.68 bitrate=N/A speed=7.86x    frame=27635 fps=189 q=-0.0 size=N/A time=00:19:12.60 bitrate=N/A speed=7.86x    frame=27737 fps=189 q=-0.0 size=N/A time=00:19:16.86 bitrate=N/A speed=7.87x    frame=27837 fps=189 q=-0.0 size=N/A time=00:19:21.03 bitrate=N/A speed=7.87x    frame=27933 fps=189 q=-0.0 size=N/A time=00:19:25.03 bitrate=N/A speed=7.87x    frame=28028 fps=189 q=-0.0 size=N/A time=00:19:29.00 bitrate=N/A speed=7.87x    frame=28126 fps=189 q=-0.0 size=N/A time=00:19:33.08 bitrate=N/A speed=7.87x    frame=28210 fps=188 q=-0.0 size=N/A time=00:19:36.59 bitrate=N/A speed=7.86x    frame=28313 fps=189 q=-0.0 size=N/A time=00:19:40.88 bitrate=N/A speed=7.86x    frame=28409 fps=189 q=-0.0 size=N/A time=00:19:44.89 bitrate=N/A speed=7.86x    frame=28505 fps=189 q=-0.0 size=N/A time=00:19:48.89 bitrate=N/A speed=7.86x    frame=28610 fps=189 q=-0.0 size=N/A time=00:19:53.27 bitrate=N/A speed=7.87x    frame=28711 fps=189 q=-0.0 size=N/A time=00:19:57.48 bitrate=N/A speed=7.87x    frame=28809 fps=189 q=-0.0 size=N/A time=00:20:01.57 bitrate=N/A speed=7.87x    frame=28894 fps=189 q=-0.0 size=N/A time=00:20:05.12 bitrate=N/A speed=7.86x    frame=29004 fps=189 q=-0.0 size=N/A time=00:20:09.70 bitrate=N/A speed=7.87x    frame=29099 fps=189 q=-0.0 size=N/A time=00:20:13.67 bitrate=N/A speed=7.87x    frame=29190 fps=189 q=-0.0 size=N/A time=00:20:17.46 bitrate=N/A speed=7.86x    frame=29284 fps=189 q=-0.0 size=N/A time=00:20:21.38 bitrate=N/A speed=7.86x    frame=29376 fps=188 q=-0.0 size=N/A time=00:20:25.22 bitrate=N/A speed=7.86x    frame=29475 fps=188 q=-0.0 size=N/A time=00:20:29.35 bitrate=N/A speed=7.86x    frame=29570 fps=188 q=-0.0 size=N/A time=00:20:33.31 bitrate=N/A speed=7.86x    frame=29670 fps=189 q=-0.0 size=N/A time=00:20:37.48 bitrate=N/A speed=7.86x    frame=29762 fps=188 q=-0.0 size=N/A time=00:20:41.32 bitrate=N/A speed=7.86x    frame=29859 fps=188 q=-0.0 size=N/A time=00:20:45.36 bitrate=N/A speed=7.86x    frame=29950 fps=188 q=-0.0 size=N/A time=00:20:49.16 bitrate=N/A speed=7.86x    frame=30054 fps=188 q=-0.0 size=N/A time=00:20:53.50 bitrate=N/A speed=7.86x    frame=30151 fps=188 q=-0.0 size=N/A time=00:20:57.54 bitrate=N/A speed=7.86x    frame=30246 fps=188 q=-0.0 size=N/A time=00:21:01.51 bitrate=N/A speed=7.86x    frame=30344 fps=188 q=-0.0 size=N/A time=00:21:05.59 bitrate=N/A speed=7.86x    frame=30449 fps=188 q=-0.0 size=N/A time=00:21:09.97 bitrate=N/A speed=7.86x    frame=30545 fps=188 q=-0.0 size=N/A time=00:21:13.98 bitrate=N/A speed=7.86x    frame=30635 fps=188 q=-0.0 size=N/A time=00:21:17.73 bitrate=N/A speed=7.86x    frame=30748 fps=189 q=-0.0 size=N/A time=00:21:22.44 bitrate=N/A speed=7.86x    frame=30846 fps=189 q=-0.0 size=N/A time=00:21:26.53 bitrate=N/A speed=7.86x    frame=30943 fps=189 q=-0.0 size=N/A time=00:21:30.58 bitrate=N/A speed=7.86x    frame=31038 fps=189 q=-0.0 size=N/A time=00:21:34.54 bitrate=N/A speed=7.86x    frame=31133 fps=189 q=-0.0 size=N/A time=00:21:38.50 bitrate=N/A speed=7.86x    frame=31239 fps=189 q=-0.0 size=N/A time=00:21:42.92 bitrate=N/A speed=7.86x    frame=31333 fps=189 q=-0.0 size=N/A time=00:21:46.84 bitrate=N/A speed=7.86x    frame=31428 fps=189 q=-0.0 size=N/A time=00:21:50.80 bitrate=N/A speed=7.86x    frame=31519 fps=188 q=-0.0 size=N/A time=00:21:54.60 bitrate=N/A speed=7.86x    frame=31617 fps=188 q=-0.0 size=N/A time=00:21:58.69 bitrate=N/A speed=7.86x    frame=31717 fps=189 q=-0.0 size=N/A time=00:22:02.86 bitrate=N/A speed=7.86x    frame=31820 fps=189 q=-0.0 size=N/A time=00:22:07.15 bitrate=N/A speed=7.86x    frame=31918 fps=189 q=-0.0 size=N/A time=00:22:11.24 bitrate=N/A speed=7.86x    frame=32018 fps=189 q=-0.0 size=N/A time=00:22:15.41 bitrate=N/A speed=7.86x    frame=32113 fps=189 q=-0.0 size=N/A time=00:22:19.37 bitrate=N/A speed=7.86x    frame=32201 fps=188 q=-0.0 size=N/A time=00:22:23.05 bitrate=N/A speed=7.86x    frame=32302 fps=189 q=-0.0 size=N/A time=00:22:27.26 bitrate=N/A speed=7.86x    frame=32400 fps=189 q=-0.0 size=N/A time=00:22:31.35 bitrate=N/A speed=7.86x    frame=32498 fps=189 q=-0.0 size=N/A time=00:22:35.43 bitrate=N/A speed=7.86x    frame=32591 fps=189 q=-0.0 size=N/A time=00:22:39.31 bitrate=N/A speed=7.86x    frame=32695 fps=189 q=-0.0 size=N/A time=00:22:43.65 bitrate=N/A speed=7.86x    frame=32793 fps=189 q=-0.0 size=N/A time=00:22:47.74 bitrate=N/A speed=7.86x    frame=32890 fps=189 q=-0.0 size=N/A time=00:22:51.78 bitrate=N/A speed=7.86x    frame=32988 fps=189 q=-0.0 size=N/A time=00:22:55.87 bitrate=N/A speed=7.86x    frame=33074 fps=188 q=-0.0 size=N/A time=00:22:59.46 bitrate=N/A speed=7.86x    frame=33181 fps=189 q=-0.0 size=N/A time=00:23:03.92 bitrate=N/A speed=7.86x    frame=33271 fps=188 q=-0.0 size=N/A time=00:23:07.67 bitrate=N/A speed=7.86x    frame=33364 fps=188 q=-0.0 size=N/A time=00:23:11.55 bitrate=N/A speed=7.86x    frame=33457 fps=188 q=-0.0 size=N/A time=00:23:15.43 bitrate=N/A speed=7.86x    frame=33555 fps=188 q=-0.0 size=N/A time=00:23:19.52 bitrate=N/A speed=7.86x    frame=33653 fps=188 q=-0.0 size=N/A time=00:23:23.61 bitrate=N/A speed=7.86x    frame=33744 fps=188 q=-0.0 size=N/A time=00:23:27.40 bitrate=N/A speed=7.86x    frame=33847 fps=188 q=-0.0 size=N/A time=00:23:31.70 bitrate=N/A speed=7.86x    frame=33949 fps=188 q=-0.0 size=N/A time=00:23:35.95 bitrate=N/A speed=7.86x    [Parsed_ssim_10 @ 00000288f1942140] SSIM Y:0.989534 (19.802233) U:0.991745 (20.833038) V:0.992992 (21.543962) All:0.990479 (20.213146)
[out#0/null @ 00000288efafa7c0] video:14630KiB audio:266644KiB subtitle:0KiB other streams:0KiB global headers:0KiB muxing overhead: unknown
frame=34047 fps=189 q=-0.0 Lsize=N/A time=00:23:40.04 bitrate=N/A speed=7.86x    
